<svg width="64" height="64" viewBox="0 0 64 64" fill="none" xmlns="http://www.w3.org/2000/svg">
  <rect x="12" y="12" width="40" height="40" rx="6" fill="#f4d6c9" stroke="#c2572f" stroke-width="2"/>
  <rect x="22" y="22" width="20" height="20" rx="3" fill="#fff7ef" stroke="#c2572f" stroke-width="2"/>
  <g stroke="#c2572f" stroke-width="2">
    <line x1="6" y1="20" x2="12" y2="20"/>
    <line x1="6" y1="32" x2="12" y2="32"/>
    <line x1="6" y1="44" x2="12" y2="44"/>
    <line x1="52" y1="20" x2="58" y2="20"/>
    <line x1="52" y1="32" x2="58" y2="32"/>
    <line x1="52" y1="44" x2="58" y2="44"/>
    <line x1="20" y1="6" x2="20" y2="12"/>
    <line x1="32" y1="6" x2="32" y2="12"/>
    <line x1="44" y1="6" x2="44" y2="12"/>
    <line x1="20" y1="52" x2="20" y2="58"/>
    <line x1="32" y1="52" x2="32" y2="58"/>
    <line x1="44" y1="52" x2="44" y2="58"/>
  </g>
</svg>
